<svg width="136" height="136" viewBox="0 0 136 136" fill="none" xmlns="http://www.w3.org/2000/svg">
<path d="M0 48C0 21.4903 21.4903 0 48 0H68H88C114.51 0 136 21.4903 136 48V88C136 114.51 114.51 136 88 136H48C21.4903 136 0 114.51 0 88V48Z" fill="white"/>
<path d="M68.88 132.76C104.712 132.76 133.76 103.712 133.76 67.88C133.76 32.0478 104.712 3 68.88 3C33.0478 3 4 32.0478 4 67.88C4 103.712 33.0478 132.76 68.88 132.76Z" fill="#F58549"/>
<path d="M46 65.84L49.3364 82H88.9472L92 65.9074C92 65.9074 85.6859 66.3789 82.825 62C82.825 62 79.6972 68.8042 69.3545 69.2758C58.8867 69.7558 55.175 62.2358 55.175 62.2358C55.175 62.2358 52.7728 66.3958 46 65.84Z" fill="white"/>
<path d="M83.563 60.5977C83.563 60.5977 85.751 55.0565 84.8407 55.3236C83.9305 55.5906 78.2101 68.025 68.974 68C59.738 67.9749 54.7776 60.9649 53.4164 55.6407C53.4164 55.6407 52.2389 53.8632 51.9716 55.3152C51.7044 56.7673 53.5166 60.0636 53.6418 60.6478C53.7671 61.232 54.1262 63.819 45.2909 64.4699C36.4557 65.1209 31.7542 54.5725 35.0611 46.269C38.3681 37.9655 45.341 39.1839 46.7523 39.234C48.1636 39.284 53.099 41.2034 54.5938 42.9059C56.0886 44.6083 55.0197 42.0713 58.5354 39.5678C62.0512 37.0642 64.665 35.729 68.8237 36.0461C72.9825 36.3632 75.6965 36.8806 78.4189 39.4593C81.1413 42.038 80.9743 43.8822 82.3104 43.8822C83.6466 43.8822 84.1393 39.6178 92.0977 39.4092C94.7933 39.229 97.463 40.0309 99.6125 41.6665C101.762 43.302 103.246 45.6605 103.789 48.3052C104.323 51.3346 104.624 62.9261 94.461 63.4852C84.2979 64.0443 83.563 60.5977 83.563 60.5977Z" fill="white"/>
<path d="M89 84H49V101H89V84Z" fill="white"/>
</svg>
