<svg width="62" height="56" viewBox="0 0 62 56" fill="none" xmlns="http://www.w3.org/2000/svg">
<path d="M11.1846 25.7082L14.059 39.6307H48.1853L50.8153 25.7662C50.8153 25.7662 45.3755 26.1725 42.9107 22.3999C42.9107 22.3999 40.216 28.262 31.3054 28.6683C22.2869 29.0818 19.0892 22.603 19.0892 22.603C19.0892 22.603 17.0196 26.187 11.1846 25.7082Z" fill="#B4BAC1"/>
<path d="M43.5466 21.1919C43.5466 21.1919 45.4316 16.4179 44.6474 16.648C43.8632 16.8781 38.9349 27.5908 30.9776 27.5692C23.0204 27.5476 18.7468 21.5082 17.5741 16.9212C17.5741 16.9212 16.5596 15.3898 16.3294 16.6408C16.0992 17.8918 17.6604 20.7318 17.7683 21.235C17.8762 21.7383 18.1856 23.9672 10.5737 24.528C2.96181 25.0888 -1.08876 16.0009 1.76031 8.84713C4.60938 1.69334 10.6169 2.74305 11.8328 2.78619C13.0487 2.82933 17.3007 4.48296 18.5885 5.94967C19.8763 7.41638 18.9554 5.23069 21.9844 3.07377C25.0133 0.916851 27.2652 -0.233508 30.8481 0.0397021C34.431 0.312912 36.7693 0.758674 39.1147 2.9803C41.4602 5.20193 41.3163 6.79086 42.4674 6.79086C43.6185 6.79086 44.043 3.11691 50.8995 2.93717C53.2219 2.78188 55.522 3.47276 57.3739 4.88187C59.2257 6.29099 60.504 8.3229 60.9719 10.6014C61.4324 13.2113 61.6914 23.1979 52.9356 23.6796C44.1797 24.1613 43.5466 21.1919 43.5466 21.1919Z" fill="#B4BAC1"/>
<path d="M48.2308 41.354H13.7692V56.0002H48.2308V41.354Z" fill="#B4BAC1"/>
</svg>
