<svg width="16" height="16" viewBox="0 0 16 16" fill="none" xmlns="http://www.w3.org/2000/svg">
<path d="M15.8445 6.43323H15.2001V6.40003H8.00003V9.60004H12.5213C11.8617 11.4628 10.0892 12.8001 8.00003 12.8001C5.34922 12.8001 3.20001 10.6508 3.20001 8.00003C3.20001 5.34922 5.34922 3.20001 8.00003 3.20001C9.22364 3.20001 10.3368 3.66162 11.1844 4.41562L13.4473 2.15281C12.0185 0.821203 10.1072 0 8.00003 0C3.58202 0 0 3.58202 0 8.00003C0 12.4181 3.58202 16.0001 8.00003 16.0001C12.4181 16.0001 16.0001 12.4181 16.0001 8.00003C16.0001 7.46363 15.9449 6.94003 15.8445 6.43323Z" fill="#FFC107"/>
<path d="M0.921875 4.27642L3.55029 6.20403C4.26149 4.44322 5.9839 3.20001 7.99951 3.20001C9.22311 3.20001 10.3363 3.66162 11.1839 4.41562L13.4467 2.15281C12.0179 0.821203 10.1067 0 7.99951 0C4.92669 0 2.26188 1.73481 0.921875 4.27642Z" fill="#FF3D00"/>
<path d="M7.99996 16.0005C10.0664 16.0005 11.944 15.2097 13.3636 13.9237L10.8876 11.8285C10.0844 12.4369 9.08596 12.8005 7.99996 12.8005C5.91915 12.8005 4.15234 11.4737 3.48674 9.62207L0.87793 11.6321C2.20194 14.2229 4.89075 16.0005 7.99996 16.0005Z" fill="#4CAF50"/>
<path d="M15.8444 6.4331H15.2V6.3999H8V9.59992H12.5212C12.2044 10.4947 11.6288 11.2663 10.8864 11.8283C10.8868 11.8279 10.8872 11.8279 10.8876 11.8275L13.3636 13.9227C13.1884 14.0819 16 11.9999 16 7.99991C16 7.46351 15.9448 6.9399 15.8444 6.4331Z" fill="#1976D2"/>
</svg>
