<svg width="64" height="64" viewBox="0 0 64 64" fill="none" xmlns="http://www.w3.org/2000/svg">
<path d="M32 64C49.6731 64 64 49.6731 64 32C64 14.3269 49.6731 0 32 0C14.3269 0 0 14.3269 0 32C0 49.6731 14.3269 64 32 64Z" fill="#F58549"/>
<path d="M20.7151 30.9938L22.3607 38.9643H41.8975L43.4032 31.0271C43.4032 31.0271 40.289 31.2597 38.8779 29.0999C38.8779 29.0999 37.3352 32.4558 32.234 32.6884C27.0711 32.9252 25.2404 29.2162 25.2404 29.2162C25.2404 29.2162 24.0556 31.268 20.7151 30.9938Z" fill="white"/>
<path d="M39.242 28.4083C39.242 28.4083 40.3211 25.6752 39.8721 25.807C39.4232 25.9387 36.6018 32.0715 32.0464 32.0592C27.491 32.0468 25.0444 28.5894 24.3731 25.9634C24.3731 25.9634 23.7923 25.0866 23.6605 25.8028C23.5287 26.519 24.4225 28.1448 24.4843 28.433C24.5461 28.7211 24.7232 29.9971 20.3655 30.3181C16.0078 30.6392 13.6889 25.4365 15.3199 21.3411C16.951 17.2456 20.3902 17.8466 21.0863 17.8713C21.7823 17.896 24.2165 18.8426 24.9538 19.6823C25.6911 20.522 25.1639 19.2707 26.8979 18.0359C28.6319 16.8011 29.9211 16.1425 31.9723 16.2989C34.0234 16.4554 35.3621 16.7105 36.7048 17.9824C38.0475 19.2542 37.9651 20.1639 38.6241 20.1639C39.2832 20.1639 39.5262 18.0606 43.4514 17.9577C44.7809 17.8688 46.0977 18.2643 47.1579 19.071C48.218 19.8777 48.9498 21.041 49.2177 22.3454C49.4813 23.8395 49.6296 29.5567 44.617 29.8324C39.6044 30.1082 39.242 28.4083 39.242 28.4083Z" fill="white"/>
<path d="M41.9236 39.9507H22.1948V48.3354H41.9236V39.9507Z" fill="white"/>
</svg>
