<svg width="16" height="36" viewBox="0 0 16 36" fill="none" xmlns="http://www.w3.org/2000/svg">
<rect x="5.5874" width="4.57143" height="7.2" fill="#E0E2E6"/>
<path d="M13.2064 31.275L16 13.05H0L2.73278 31.275H13.2064Z" fill="#E0E2E6"/>
<path d="M16 12.9375C16 16.8518 12.4183 20.025 8 20.025C3.58172 20.025 0 16.8518 0 12.9375C0 9.02319 3.58172 5.85001 8 5.85001C12.4183 5.85001 16 9.02319 16 12.9375Z" fill="#E0E2E6"/>
<path d="M13.2064 31.3875C13.2064 33.9349 10.8754 36 8.00002 36C5.12463 36 2.79367 33.9349 2.79367 31.3875C2.79367 28.8401 5.12463 26.775 8.00002 26.775C10.8754 26.775 13.2064 28.8401 13.2064 31.3875Z" fill="#E0E2E6"/>
<path d="M0.38093 15.975C-0.127006 13.455 0.084634 12.225 0.253946 11.925H7.873V15.975H6.60316H0.38093Z" fill="#E0E2E6"/>
<path d="M14.3493 23.85L14.4763 23.175L14.7302 21.2625L14.7302 19.8H7.11118L7.11118 23.85H14.3493Z" fill="#E0E2E6"/>
</svg>
