<svg width="8" height="8" viewBox="0 0 8 8" fill="none" xmlns="http://www.w3.org/2000/svg">
<path d="M4.99536 2.82478L4.15128 0.994808C4.09171 0.865663 3.90816 0.865663 3.84859 0.994808L3.00451 2.82478C2.98023 2.87741 2.93035 2.91365 2.87279 2.92048L0.87155 3.15776C0.730318 3.1745 0.673598 3.34907 0.778015 3.44563L2.25758 4.81389C2.30014 4.85325 2.31919 4.91189 2.3079 4.96874L1.91514 6.94536C1.88743 7.08485 2.03592 7.19274 2.16002 7.12327L3.91853 6.13893C3.96911 6.11062 4.03077 6.11062 4.08135 6.13893L5.83985 7.12327C5.96395 7.19274 6.11245 7.08485 6.08473 6.94536L5.69198 4.96874C5.68068 4.91189 5.69974 4.85325 5.74229 4.81389L7.22186 3.44563C7.32628 3.34907 7.26956 3.1745 7.12833 3.15776L5.12708 2.92048C5.06952 2.91365 5.01964 2.87741 4.99536 2.82478Z" stroke="#05162A" stroke-width="0.5" stroke-linecap="round" stroke-linejoin="round"/>
</svg>
